
<svg xmlns="http://www.w3.org/2000/svg" viewBox="0 0 421.37 180.02"><defs><style>.cls-1{fill:#0d374f;}.cls-2{fill:#09a47d;}.cls-3{fill:#20304e;}.cls-4{fill:#81c078;}</style></defs><g id="Layer_2" data-name="Layer 2"><g id="Layer_1-2" data-name="Layer 1"><path class="cls-1" d="M64.23,102l-11-2L0,24.48Q2.88,16.42,10.66,8.93T31.11,1.44A25.46,25.46,0,0,1,45.8,5.76q6.63,4,13,14.12l33.7,51.84,13,7.78,55,77.47a27.25,27.25,0,0,1-10.08,17q-7.78,6.06-20.45,6a24.86,24.86,0,0,1-14.12-4q-6-4.32-12.67-14.4Zm37.44.86L87,111.46l-44.93,68a30.79,30.79,0,0,1-4.32.29,28.73,28.73,0,0,1-4,.28q-16.13,0-24.19-6.62A20.72,20.72,0,0,1,1.73,157a26.85,26.85,0,0,1,3.74-14.4,158.88,158.88,0,0,1,10.09-14.69L53.28,79.79,76,62.21,114.63,4.32A32.32,32.32,0,0,1,121,2.88,39.49,39.49,0,0,1,129.32,2Q142,2,149.48,8.36T157,23.91a24.94,24.94,0,0,1-4.32,14.4,174.2,174.2,0,0,1-11.23,15.26L121.84,78.34q-9.8,12.1-20.17,24.48"/><path class="cls-2" d="M79.9,122.29c-.9,0-4.29,1.81-4.84,1.59l2.69,1.56.9-1.37,2,3c16.32,24.74,42.42,53.72,77.27,37.62a29.93,29.93,0,0,0,2.54-7.74c-.74-1-1.43-2-2.09-2.94l-13.52-19c-7.34,16.13-27.94,33.69-73.6-22.32,0,0,8.74,9.61,8.68,9.62"/><path class="cls-1" d="M185.2,50.41h50.4v127a80,80,0,0,1-9.79,1.73,103.94,103.94,0,0,1-13.54.86q-15,0-21-5.18-6.06-5.47-6.05-18.72Zm50.4,66.53H185.2V2.59q3.45-.57,10.08-1.44A81.59,81.59,0,0,1,208.53,0q14.4,0,20.73,4.9t6.34,19Z"/><path class="cls-1" d="M325.18,102l-10.95-2L261,24.48q2.88-8.06,10.65-15.55t20.45-7.49a25.43,25.43,0,0,1,14.69,4.32q6.63,4,13,14.12l33.7,51.84,13,7.78,55,77.47a27.21,27.21,0,0,1-10.08,17q-7.77,6.06-20.45,6a24.83,24.83,0,0,1-14.11-4q-6-4.32-12.67-14.4Zm37.44.86-14.69,8.64-44.93,68a31,31,0,0,1-4.32.29,28.88,28.88,0,0,1-4,.28q-16.12,0-24.19-6.62A20.74,20.74,0,0,1,262.68,157a26.77,26.77,0,0,1,3.74-14.4,156.6,156.6,0,0,1,10.08-14.69l37.73-48.09L337,62.21l38.6-57.89a32.2,32.2,0,0,1,6.33-1.44A39.58,39.58,0,0,1,390.27,2q12.66,0,20.16,6.34t7.49,15.55a24.94,24.94,0,0,1-4.32,14.4,174.59,174.59,0,0,1-11.24,15.26Q392.58,66,382.78,78.34q-9.79,12.1-20.16,24.48"/><path class="cls-3" d="M413.6,38.31C409.41,44,405.74,49,402.34,53.6l0,0A176.12,176.12,0,0,0,413.6,38.31Zm-40,51.33c-10.68,12.07-25.3,20.84-34,34.43l24.47,37.51q6.62,10.08,12.67,14.4a24.83,24.83,0,0,0,14.11,4q12.68,0,20.45-6a27.21,27.21,0,0,0,10.08-17Zm-51.26,60.6c-7.09,10.47-13.58,20-19.3,29.2Z"/><path class="cls-4" d="M390.27,2a39.58,39.58,0,0,0-8.36.86,32.2,32.2,0,0,0-6.33,1.44c36.71-4.81,28.5,35.5-6.72,63.14-47.37,37.18-73.77,64.24-65.85,112l36.58-55.34,24.47,37.51q6.62,10.08,12.67,14.4a24.81,24.81,0,0,0,14.11,4q12.68,0,20.45-6.06a27.21,27.21,0,0,0,10.08-17L373.56,89.64q4.67-5.69,9.22-11.3Q392.56,66,402.36,53.57A176.12,176.12,0,0,0,413.6,38.31,24.42,24.42,0,0,0,417.25,30q.31-3,.66-6v-.07q0-9.22-7.48-15.55T390.27,2Z"/><path class="cls-2" d="M292.05,1.44c-.48,0-1,0-1.44,0l-.54,0c-.29,0-.58,0-.86.05l-.66.05-.69.07-.73.08-.56.08-.82.13-.3.06a30.21,30.21,0,0,0-3.25.77h0a26.46,26.46,0,0,0-5.63,2.41l-.15.09c-.41.24-.81.49-1.21.75h0c-.39.26-.78.53-1.16.81a1.09,1.09,0,0,1-.17.13c-.38.29-.76.6-1.14.92l0,0c-.37.32-.74.65-1.1,1-1.31,1.25-2.5,2.52-3.6,3.8-.54.63-1.06,1.26-1.55,1.9s-1,1.28-1.41,1.93-.86,1.3-1.25,2-.76,1.31-1.1,2-.66,1.31-.95,2h0c-.09.21-.18.42-.26.63-.19.45-.37.9-.53,1.36a0,0,0,0,0,0,0s135.67,76,130.86,139.55c-.49,6.4-2.49,11.36-15.14,11.91l.06,0a24.86,24.86,0,0,0,14.11,4h0q1.57,0,3.09-.09c1-.06,2-.16,2.93-.28s1.89-.29,2.79-.48,1.79-.41,2.63-.66,1.68-.54,2.48-.85,1.58-.66,2.33-1a25.53,25.53,0,0,0,6.12-4.3c.58-.55,1.14-1.12,1.66-1.71l.07-.07.09-.11c.51-.58,1-1.19,1.45-1.81a27.08,27.08,0,0,0,2.53-4.25c.35-.75.68-1.53,1-2.33.1-.27.19-.55.29-.83,0-.13.09-.25.13-.38.13-.41.25-.83.37-1.25s.22-.85.32-1.28c0-.18.08-.37.11-.55s.12-.51.16-.77L373.56,89.64l.14-.17C349.88,65.79,337,52.84,324.45,43.69L308,31.66c-15.71-11.46,7.26-14.29,6.68-18.78l-.07-.08-.83-1a1.29,1.29,0,0,1-.16-.17l-.83-.9-.11-.11c-.63-.66-1.26-1.28-1.9-1.85l-.17-.15L309.86,8l-.31-.25c-.2-.17-.41-.33-.62-.49L308.59,7l-.6-.43-.33-.24q-.37-.25-.75-.48l-.17-.1a25.36,25.36,0,0,0-14.69-4.32Z"/><path class="cls-4" d="M129.32,2a39.49,39.49,0,0,0-8.35.86l-1.12.18q-2.62.66-5.22,1.26C221.85,1.42-41.61,136.45,42.05,179.44l36.6-55.37c13.85-17.78,22.78-23.64,34-34.43q4.66-5.69,9.22-11.3l19.58-24.77a175.71,175.71,0,0,0,11.23-15.26A24.94,24.94,0,0,0,157,23.91q0-9.22-7.49-15.55T129.32,2Z"/><path class="cls-4" d="M185.2,102.19v41.89C189,124,197.52,117.75,213.75,180a103.72,103.72,0,0,0,12.06-.85,80,80,0,0,0,9.79-1.73v-32c-8.31,45-40.84-24.46-50.4-43.26"/><path class="cls-4" d="M208.53,0a81.49,81.49,0,0,0-13.25,1.15l-2.9.4c10.41-.1,25.13,6.85-7.18,59.22V74.83C198.62,61,220.94,33.65,234.55,14Q233,7.82,229.26,4.9,222.93,0,208.53,0"/></g></g></svg>