<svg width="1920" height="1080" fill="none" xmlns="http://www.w3.org/2000/svg">
  <g clip-path="url(#a)" fill="#fff" fill-opacity=".1">
    <path d="M963 441h-1c-12-1-23-7-30-12l-4-4c-1-3-1-7 2-10 2-3 6-4 9-5l2-1v-2l-1-6-2-3-2-8c0-6 7-9 13-10 3 0 8 1 11 4 2 1 2 3 1 4v3l2 2 10 5 2 1 4 1c4 2 7 4 9 7 3 3 4 7 5 10l-3 9c-5 9-16 15-27 15Zm-14-60c-6 1-12 4-12 9l2 7 2 4 1 6v2l-3 2c-3 1-6 2-8 5-2 2-3 6-2 9l4 3c6 5 17 11 29 12h1c11 0 21-6 26-14l3-9c-1-3-2-6-5-9l-8-7-4-1-3-1c-4-1-7-3-10-6l-2-1v-4c1-1 1-2-1-4s-7-3-10-3Z"/>
    <path d="M953 465c-5 0-10-2-14-4l-11-4c-6-1-14-3-21-7-3-2-5-5-6-9l-1-4v-8l1-3v-5c1-4 3-8 8-13l2-2v-1l1-3v-8l-1-2-1-1v-1l-3-11 1-7a8 8 0 0 1 4-5h3l4-1 2-2c3-2 8-4 12-4l7 2 6 2h7l5 1 2 2v1l2 1 1 1 3 1 4 2 5 1c6 1 13 2 20 5l3 2 2 1a84 84 0 0 1 15 24l2 4v1l5 12v6a33 33 0 0 1-8 15l-5 4-9 6c-5 5-10 9-16 8l-16 1h-3l-8 2h-4Zm-21-104c-3 0-7 2-10 4l-3 2h-4l-2 1a7 7 0 0 0-4 4l-1 6a30 30 0 0 0 4 13l1 3v8l-1 4-2 3h-1c-4 4-6 8-7 13v4l-1 4v7l1 4c1 3 3 6 6 8 6 4 14 6 20 7l11 4c6 3 12 5 18 3l8-1h3c5-1 12-2 16-1 6 1 10-3 15-7l9-7 6-3 4-7 3-8v-6l-5-12a359 359 0 0 1-10-19 82 82 0 0 0-9-11l-2-1c-7-3-14-4-20-5l-5-1a21 21 0 0 1-10-5l-1-1-2-2-4-1h-7l-7-2-6-2h-1Z"/>
    <path d="M945 489c-5 0-11-2-17-5-5-3-11-5-17-6-9 0-20-2-28-7a25 25 0 0 1-11-20v-8a51 51 0 0 0 1-12l-1-3c0-7 2-14 6-22l1-1 2-3 2-5v-12a21 21 0 0 0-2-4l-1-2c-2-6-2-11-2-16 0-3 0-7 2-10s4-5 7-5h4l6 1 4-3c5-4 11-7 17-6l9 3 9 4 7-2 3-1 8 1 4 2 1 2 4 1h2l4 1 1 1 8 1h6c11 1 23 3 34 7l5 3 2 3a126 126 0 0 1 16 34l5 13 1 2 5 17-1 9a56 56 0 0 1-13 22l-8 4c-6 2-11 6-16 10-7 5-13 11-22 9-6-1-18-2-25-1l-3 1-13 2c-2 1-4 2-6 1Zm-64-135-2 9a34 34 0 0 0 3 18l1 1 1 3c2 4 1 9 0 12a24 24 0 0 1-4 9l-1 1c-4 7-6 14-6 21l1 2a36 36 0 0 1 0 13l-1 8a23 23 0 0 0 10 19c9 5 19 7 29 7 5 0 11 3 17 6 7 4 15 7 22 4 4-2 8-2 13-3h3c7-1 19 0 25 1 8 1 15-4 21-9 5-4 10-8 16-10l9-4 6-9 6-12 1-9-5-17-1-2-5-13-7-18a124 124 0 0 0-11-19l-4-2c-11-4-23-5-34-7h-6l-8-1-1-1-5-1h-1l-4-1-2-2-4-2-7-1-3 1-7 2c-4 0-7-2-10-4-3-1-5-3-8-3-6-1-12 2-16 6l-4 3-7-1h-4c-2 0-5 2-6 5Z"/>
    <path d="M938 514c-7 0-13-4-21-7-7-4-14-8-21-8h-1c-13 0-26-1-37-8-6-4-11-10-13-17l-1-9 1-10v-13l-1-5-1-3a47 47 0 0 1 7-32l2-3v-1l2-6c1-5 2-10 0-15l-1-4-1-1-1-4c-3-7-3-14-2-21l3-12c2-4 7-7 10-6l6 1c2 1 5 2 8 1l5-3c6-5 14-10 22-9l10 5c4 3 8 5 13 5l9-3 4-1c3-2 7-2 11-1l6 3c0 1 1 2 3 2l5 1 3 1h5l3 1 11 1h8c16 1 32 2 48 8l6 4 3 4a171 171 0 0 1 17 45l7 22 1 3c3 7 6 14 6 22l-2 12a80 80 0 0 1-17 28c-4 3-9 4-13 5-8 2-15 7-21 13-9 7-18 14-29 11a130 130 0 0 0-37-2c-6 1-12 1-17 4l-8 2Zm-42-16c7 0 15 4 22 8 10 5 19 9 27 5 6-3 12-3 18-4h4c8-1 26 0 33 2 11 3 19-4 28-11 7-6 13-11 22-13 4-1 8-2 12-5s7-7 9-12l8-15 2-12c0-8-3-15-6-22l-1-3-7-22-7-22a168 168 0 0 0-13-27l-6-3c-15-6-31-7-47-8h-8l-11-1h-3a272 272 0 0 1-14-3l-3-2-5-3c-4-1-7 0-11 1l-3 1c-3 2-6 3-10 3-5 0-9-2-13-5l-10-5c-8-1-15 4-22 9-1 1-3 3-5 3-3 1-6 0-8-1l-6-1c-3 0-7 2-9 6-2 3-3 8-3 12-1 6-1 13 2 20l1 3 1 1 2 4c2 6 0 11-1 16a43 43 0 0 1-2 7l-2 4-1 2c-5 10-7 20-5 28v4l1 5v13l-1 10 2 9c2 6 6 12 12 16 11 8 24 8 36 8h1Z"/>
    <path d="M931 539c-8 0-16-5-24-9-9-5-19-10-28-10-15 1-32 1-46-8-7-5-13-13-15-22l-2-11 1-12v-17l-1-6-2-4a58 58 0 0 1 6-41l2-4v-1l3-7c1-6 3-13 1-19a31 31 0 0 0-3-6l-2-4c-4-9-3-18-2-26 1-5 2-11 5-15 3-5 9-8 13-8l7 3c3 2 6 3 10 2l6-4c9-7 18-13 27-11 5 1 9 4 13 6 5 4 10 7 16 7 4 0 8-2 11-4l5-3c4-2 10-2 15-1l7 3 4 3 7 1h4l6 1h5l13 1h11c20 1 41 1 61 9l8 5 4 6 11 29 8 27a474 474 0 0 0 10 34c3 9 6 18 6 27l-3 15-10 20c-3 5-7 11-12 14-5 4-10 5-16 6-11 2-19 9-28 16-11 9-21 18-36 13-8-2-31-5-40-4l-5 1c-8 1-15 1-22 5l-9 3Zm-51-20c9 0 18 5 27 10 12 6 22 12 33 6 7-4 14-5 22-5l5-1c10-1 32 1 41 4 14 4 24-4 34-13 9-7 18-14 29-16 5-1 11-3 15-6 5-3 8-8 12-14l10-19 3-15c0-9-3-18-6-27l-2-3-8-31a492 492 0 0 0-19-56l-4-5-7-5c-20-7-41-8-61-9h-11l-13-1h-5l-7-1h-3l-8-1-4-2-7-4c-4-1-9 0-14 2l-4 2c-4 2-7 4-12 4-6 0-11-3-16-7-4-2-8-5-13-6-9-2-18 4-26 11-2 2-4 4-7 4-4 1-7 0-10-2l-7-2c-4-1-9 2-12 6-3 5-4 10-4 15-2 8-2 17 1 25l2 5a84 84 0 0 1 3 6c2 6 1 13-1 19l-3 8v1l-2 3-2 5c-5 12-6 24-3 36l1 4 2 6c1 6 0 12-1 18v11l1 11c2 8 7 16 15 21 13 9 30 9 45 8h1Z"/>
    <path d="M924 563c-9 0-19-5-28-11-11-6-22-12-33-11-18 2-38 2-55-8-8-6-15-16-18-27l-1-13v-13c1-7 2-14 1-21l-3-8-1-5a71 71 0 0 1 5-51l1-3v-1l4-9c2-7 4-15 1-23l-2-5-1-2-3-5c-4-10-3-20-1-30 1-6 3-13 6-19l1 1-1-1c4-5 11-9 16-8l9 4c3 2 7 4 12 3l7-5c10-8 20-16 32-14 6 1 11 5 15 8 6 5 12 9 19 8 5 0 9-3 13-5l6-3c5-3 12-4 18-3l9 5 5 3 9 1h13l5 1h30c25 0 51 1 75 10l9 6 5 7 13 36 8 31 10 39 1 5c4 10 7 21 7 32 0 6-2 12-4 18-3 8-8 16-12 23s-9 13-15 17-12 6-19 7c-13 2-24 10-34 19-13 11-25 21-43 15-9-3-37-6-48-5h-6c-9 1-18 2-26 7-4 2-7 3-11 3Zm-59-23c11 0 21 6 31 11 14 8 26 15 38 8 8-5 17-6 27-7h6c11-2 39 2 49 5 16 6 28-4 41-15 10-9 21-18 35-20 6-1 13-2 18-6 6-4 10-10 15-16 4-7 9-15 12-23l4-18c0-11-4-22-7-32l-1-4c-5-13-8-27-11-40l-8-30a263 263 0 0 0-17-43c-2-3-6-4-9-6-24-9-49-9-74-10h-30l-6-1h-12l-10-1-5-3c-3-2-5-4-8-4-6-1-12-1-18 2l-5 3c-4 3-9 5-14 6-7 0-14-4-19-9-5-3-10-6-15-7-11-3-22 5-32 13l-7 5c-5 1-9-1-13-3-3-2-5-3-8-3-5-1-11 2-15 7-3 5-5 12-6 18-1 10-3 20 1 30l3 5 1 1 2 6c3 8 1 16-1 23l-3 9-1 1a173 173 0 0 1-4 10 69 69 0 0 0-1 48l3 9v21l-1 13 1 13c3 11 10 20 18 26 16 10 36 9 54 8h2Z"/>
    <path d="M916 588c-10 0-20-6-31-13-13-7-26-14-39-13-20 2-44 4-62-9-11-6-18-17-21-30-2-5-2-11-2-16l1-15v-25l-3-10-2-5c-6-16-5-35 1-53l4-9 1-3 3-10c3-9 5-18 2-26 0-2-1-5-3-7v-1l-3-6c-5-12-4-24-1-36 1-7 3-15 7-21 5-6 13-10 19-9l10 4c4 3 9 6 14 4 3 0 6-3 8-5 12-10 24-19 38-16 6 1 12 5 17 9 7 6 14 10 22 10 6 0 11-4 16-7l6-4c6-3 14-4 21-3l11 5 6 3c3 2 7 1 12 1h5l9 1h42c28 0 60 0 88 11l11 7a305 305 0 0 1 28 87l12 47 2 6c4 12 7 24 7 37-1 7-2 14-5 21-4 10-10 19-15 27s-10 15-17 20c-7 4-15 6-22 7-16 2-29 12-40 22-16 13-30 25-50 17-11-4-43-8-56-7l-7 1c-11 1-21 2-31 8-4 2-8 4-13 4Zm-66-27c12 0 24 7 35 13 16 9 30 17 43 9 10-6 21-7 32-8l6-1c14-1 46 3 58 7 19 7 33-5 48-17 12-10 24-21 41-23 7-1 15-2 22-6a158 158 0 0 0 31-46c3-7 4-14 5-21 0-13-4-25-8-37l-1-5-12-48-8-35a303 303 0 0 0-20-51c-3-3-7-5-10-6-28-12-59-12-88-12h-56c-5 0-9 0-13-2l-6-3-10-5c-7-1-14 0-21 4l-6 3c-5 4-10 7-16 7-9 1-16-4-23-9-5-4-10-9-17-10-12-3-25 6-36 16-2 2-5 5-9 6-6 1-10-2-15-4l-9-5c-6-1-13 3-18 9-4 6-6 13-7 20-2 12-4 24 1 35l3 6 1 2 3 6c3 9 1 19-2 27l-4 11-1 2-4 10c-6 18-6 35-1 52l2 5 3 10c2 8 1 17 0 25l-1 15 2 15c3 13 11 24 20 30 19 12 42 11 62 9h4Z"/>
    <path d="M909 612c-11 0-23-7-35-14-15-8-29-17-44-15-23 3-50 5-71-9-12-8-20-20-24-35l-2-18 1-16c1-10 2-20 0-30l-4-11-2-6c-7-18-7-40 0-60l5-13v-1l4-12c4-11 6-21 3-30l-4-7-1-2-3-7c-5-13-3-27-1-40 2-8 4-17 9-24 6-8 15-12 22-10l11 5c5 4 10 7 16 5 4-1 7-3 10-6 13-11 27-22 42-19 8 2 14 7 20 12 8 6 16 11 25 11 7-1 12-5 18-9l7-4c7-4 16-6 25-4l12 5 7 4 14 1h65c32 0 69-1 102 12 4 2 9 4 12 8 3 3 4 7 6 10a353 353 0 0 1 25 89 737 737 0 0 0 15 63c4 13 9 27 8 42l-6 24c-4 11-11 22-17 31s-11 17-20 22c-7 5-17 6-25 7-19 3-33 14-47 26-17 14-33 28-56 20-12-5-50-11-65-9l-7 1c-13 1-25 2-35 9-5 3-10 4-15 4Zm-75-30c14 0 27 7 40 15 18 10 34 19 49 10 11-7 23-9 36-10h7c15-2 53 3 66 8 21 9 37-5 54-19 14-12 28-24 47-26 9-1 18-2 26-7s13-13 19-22 12-19 17-30l6-24c0-14-4-28-8-42l-2-6c-6-19-10-38-14-57l-8-38a352 352 0 0 0-22-60c-3-4-8-6-12-7-32-13-69-13-101-13l-17 1h-23l-9-1a1621 1621 0 0 1-16 0c-5 1-10 1-14-1l-8-4-12-5c-8-1-16 0-24 4l-6 4c-6 4-12 8-19 9-10 1-18-5-26-11-6-5-12-10-19-11-15-3-28 7-41 18l-10 7c-7 1-12-2-18-6l-10-5c-7-1-15 3-20 10-5 6-7 15-9 23-3 13-5 27 0 40l4 6 1 2 3 8c3 10 1 20-2 30l-5 12v1l-5 13c-6 20-6 41 0 60l2 5 4 12c3 10 2 20 1 30l-2 16 2 18c4 14 12 27 24 34 20 13 47 12 70 9h4Z"/>
    <path d="M902 637c-13 0-26-8-39-16-16-9-33-19-49-17-26 4-56 6-80-9-13-9-22-23-27-40l-2-20 1-18c2-11 3-23 0-33l-4-13-3-7a109 109 0 0 1 4-83v-1l5-13c4-13 7-23 3-34l-4-8-1-2-4-7c-6-15-3-31 0-46 2-9 5-19 11-26 6-9 16-13 24-11 5 1 9 3 13 6 5 4 11 8 18 6 4-1 7-4 10-7 15-13 31-25 48-21 8 2 15 7 22 13 9 7 17 13 28 12 8 0 14-5 20-9l8-6c8-5 18-6 28-5 5 1 10 4 14 6l8 5 16 1 7-1h11l11 1 26-1h19c37-1 78-1 115 13 5 2 10 5 14 9a399 399 0 0 1 24 69l9 42c5 22 9 44 15 65l3 7c4 16 9 32 8 48-1 9-3 19-7 27-5 12-12 24-19 34s-13 19-22 25-19 7-29 8c-22 2-38 16-53 29-19 16-38 32-63 22a234 234 0 0 0-81-10c-14 2-28 3-40 11-5 3-10 5-16 5Zm-83-34c15 0 30 8 44 17 19 11 38 21 54 10 13-8 26-9 41-10l8-1c16-2 58 4 74 10 24 10 42-5 61-21 16-13 32-27 53-29 10-1 20-3 29-8 9-6 15-14 22-24 6-10 14-22 19-34 4-9 6-18 6-27 1-16-3-32-8-47a1001 1001 0 0 1-26-115 398 398 0 0 0-24-68c-4-4-9-6-14-8-36-15-77-14-114-13h-56a535 535 0 0 1-18 0c-6 0-11 1-16-1l-9-4c-4-3-8-5-13-6-10-2-19 0-27 5l-8 5c-6 4-13 9-21 10-11 1-20-6-29-13-6-5-13-11-21-13-17-3-32 8-47 21-3 3-7 6-11 7-7 2-13-2-19-6l-12-6c-8-2-17 3-23 11-6 7-8 17-10 26-4 15-6 30 0 44l4 8 1 2 3 8c4 11 2 22-3 35l-4 13-1 1-5 14a107 107 0 0 0 4 74l5 13c2 11 1 23 0 34l-1 19c0 6 0 13 2 19 4 17 13 30 26 39 23 15 53 12 79 9h5Z"/>
    <path d="M895 661c-14 0-28-8-43-17-18-11-36-21-55-19-29 4-62 7-88-10-14-9-24-25-29-44l-3-21 2-21c1-12 2-25-1-37l-5-15-3-7a121 121 0 0 1 3-92l1-2 5-14c5-14 7-26 3-37a56 56 0 0 0-5-11l-4-9c-7-16-4-33 0-50 2-10 5-21 12-30 5-7 16-14 27-12l14 8c6 4 13 8 20 7 5-1 9-5 12-8 16-15 34-28 52-24 10 3 18 9 25 15 10 7 19 15 31 14 8-1 15-6 22-11l9-6c9-6 20-8 31-6 6 1 11 4 16 6l9 5c6 2 12 2 18 1h32l29-1h22c41-1 87-2 128 14 6 3 12 5 16 10l7 13c8 19 14 39 19 64l10 47c5 24 10 49 17 73l2 8c5 17 10 35 9 53-1 10-3 21-8 30-5 14-14 26-21 38-8 11-15 21-25 27s-22 8-33 9c-23 2-41 18-58 32-22 18-42 35-70 24-16-7-64-14-81-12l-9 1c-16 1-31 3-44 12-6 3-12 5-18 5Zm-92-38c17 0 34 10 49 19 21 13 41 25 60 12 13-9 28-10 45-12l9-1c17-2 65 5 82 12 27 12 47-5 68-23 17-15 35-30 59-32 11-1 23-3 32-9 10-6 17-16 24-27 8-12 16-24 22-37 4-10 7-20 7-30 2-18-4-35-9-52l-2-8c-7-25-12-50-16-74l-10-47a444 444 0 0 0-26-76c-4-5-10-7-15-9-41-16-87-15-128-15l-22 1h-53l-8 1c-6 0-13 1-18-1l-10-5c-5-3-9-6-15-6-11-2-22 0-30 5l-9 6c-7 5-14 11-23 11-12 1-22-6-32-14-7-6-15-12-24-14-18-4-35 9-51 23-4 3-8 7-13 8-8 2-14-2-21-7-4-3-9-6-13-7-11-2-21 4-26 11h-1 1c-7 9-9 19-12 29-4 17-6 34 0 50l4 8 2 2 4 9c4 14 0 27-4 39l-5 14v1l-6 17c-7 25-6 52 3 75l2 7c3 4 4 9 6 15 3 12 2 25 0 37l-1 21 2 21c5 19 15 34 29 43 26 17 59 14 87 10l6-1Z"/>
    <path d="M888 686c-15 0-31-10-47-19-20-12-40-24-60-21-32 5-68 9-96-10a79 79 0 0 1-33-48c-2-8-2-16-2-24l1-23c2-13 3-28 0-41l-6-16-4-8a134 134 0 0 1 2-102l1-1 6-16c4-12 8-27 4-41l-5-10-1-2-5-9c-7-18-4-38 1-56 2-11 6-23 13-32 6-8 18-16 30-13l15 9c7 5 14 9 22 7 6-1 10-5 13-8 18-16 38-31 58-26 10 2 19 9 27 16 11 9 21 17 34 15 9 0 17-6 24-12l10-7c10-6 23-8 35-6 6 1 12 4 17 7l11 5c5 2 13 1 19 1l9-1h59l24-1c45-1 97-2 142 16 6 2 12 5 17 10a487 487 0 0 1 29 85l10 51c5 27 10 55 18 82l2 9c6 19 11 39 10 58-1 11-4 22-9 33-6 15-15 29-24 42-6 10-15 22-27 30-11 6-24 8-36 9-26 2-46 19-65 35-23 20-45 39-76 26-18-8-70-15-89-13l-10 1c-18 1-34 3-49 13-6 3-12 6-19 6Zm-100-42c18 0 36 11 53 21 23 14 45 27 65 13 15-10 32-11 49-13l11-1c19-2 71 6 89 13 30 13 52-5 75-25 19-16 39-33 66-35 12-1 25-3 35-10 12-7 20-19 27-29 9-13 18-27 24-41 5-12 8-22 8-33 2-19-4-39-9-57l-3-9-18-83-10-50a490 490 0 0 0-28-85c-5-5-11-8-17-10-45-18-96-17-141-15h-24l-32 1h-36c-7 1-14 1-20-1l-11-5c-5-3-10-6-17-7-11-2-24 1-33 7l-10 6c-7 6-15 12-25 13-14 1-24-7-35-16-8-6-17-13-26-15-20-5-39 9-57 25-3 4-8 8-13 9-9 2-17-3-24-8-4-3-9-7-15-8-11-3-22 4-28 12h-1 1c-7 9-10 21-13 32-4 17-8 36 0 54l4 9 2 3 4 10c5 14 1 29-4 42l-6 15v2l-6 18c-8 28-6 57 4 83l3 7 6 17c4 13 2 28 1 42l-2 22c0 8 1 16 3 23 5 21 16 38 32 48 27 18 63 15 95 10l7-1Z"/>
    <path d="M880 710c-16 0-33-10-50-21-21-12-43-25-65-22-35 6-74 10-105-10a86 86 0 0 1-35-53c-2-9-3-17-3-26l2-24c1-15 3-31-1-46l-7-17-4-9a147 147 0 0 1 2-111l1-3 6-16c5-14 9-29 4-44l-5-11-1-3-5-10c-9-20-4-41 0-60 3-12 7-25 15-35 7-9 20-17 33-14 6 2 11 6 17 9 7 6 15 11 24 9 5-1 10-5 14-9 19-18 40-34 63-28 11 2 20 10 29 17 12 9 23 18 37 17 10-1 18-7 27-14l10-7c10-7 25-10 38-8l19 8 12 6c6 2 14 1 22 0h39l35-1 26-1c50-1 106-3 155 17 7 2 14 5 19 11a538 538 0 0 1 31 94l10 55a1059 1059 0 0 0 23 100c6 21 12 42 10 63-1 12-4 24-10 36-6 16-16 31-26 45-7 11-16 25-30 33-11 7-26 9-39 10-29 2-50 21-71 38-26 22-50 42-83 28-20-8-77-17-97-15l-12 1c-19 2-37 4-52 14-7 5-14 7-22 7Zm-108-45c20 0 40 12 58 23 25 15 49 29 71 14 16-11 34-13 53-14l11-2c21-2 79 7 98 15 33 14 57-6 82-27 21-18 43-36 72-39 13-1 27-3 39-9a286 286 0 0 0 55-77c5-13 8-24 9-36 2-21-4-42-10-63a1295 1295 0 0 1-22-100l-11-55a537 537 0 0 0-30-93c-5-5-12-8-18-11-50-19-105-18-155-16h-26l-35 1h-30l-9 1c-8 1-16 1-23-1l-12-6c-6-3-11-6-18-7-13-2-27 1-37 7l-10 8c-9 6-17 13-28 14-15 1-26-9-38-18-9-7-18-14-29-17-22-5-43 12-61 28-4 4-9 8-15 10-10 2-18-4-25-9-5-4-11-8-17-9-12-3-24 4-31 13-8 10-11 22-14 34-5 19-9 40-1 59l5 10 2 3 5 11c5 16 0 32-5 46l-6 16-1 2-6 20c-8 31-6 63 5 91l3 8c3 6 6 12 7 18 4 15 3 31 1 46l-2 24c0 8 1 17 3 25 6 23 18 42 35 53 30 19 69 15 104 10l7-1Z"/>
    <path d="M873 735c-17 0-35-11-54-23-23-14-46-28-70-24-38 6-81 11-114-10a93 93 0 0 1-38-58c-2-9-3-19-3-28l2-26c2-17 3-34-1-49l-8-20-3-9a159 159 0 0 1 0-121l2-4 6-16c5-15 10-32 4-48l-5-12-1-2-6-12c-9-21-4-44 1-65 3-13 7-27 16-37 8-10 22-19 36-15 6 2 12 6 18 10 8 6 16 12 26 10 6-1 10-5 15-10 22-19 44-36 68-31 12 3 22 11 32 19 13 10 25 20 40 19 11-1 20-9 29-15l11-9c11-7 27-10 41-8 8 1 15 5 21 8 4 2 8 5 13 6 7 3 16 2 24 1l10-1h32l39-1 28-1c54-2 115-4 169 18 7 3 15 6 20 12a585 585 0 0 1 44 161 1171 1171 0 0 0 24 110c6 22 13 45 11 68-1 13-4 26-10 39-8 17-19 34-29 49-8 12-18 27-32 35-13 8-29 10-43 11-31 2-55 22-77 41-28 24-54 46-90 30-21-9-83-19-106-16l-12 1c-20 2-40 3-57 15-7 5-15 8-23 8Zm-116-49c21 0 42 13 63 25 26 16 52 31 75 15 18-12 37-14 58-16l12-1c23-2 85 7 106 16 36 16 61-6 89-29 22-19 46-39 78-42 14-1 29-3 42-10 14-9 24-23 32-35 10-15 21-31 28-48 6-14 9-26 10-39 2-23-4-46-11-68l-3-10c-9-33-15-67-21-100l-11-59a583 583 0 0 0-32-101c-6-6-13-9-20-12-54-21-114-19-168-17l-28 1-39 1h-32l-10 1c-9 0-17 1-25-1l-13-7c-6-3-12-6-20-7-14-2-29 1-40 8l-11 8c-9 7-18 14-30 15-16 2-29-9-41-19-10-7-20-15-31-18-25-6-47 12-66 30-6 5-10 9-17 11-10 2-19-4-27-10-6-5-11-9-18-10-13-4-26 4-34 14s-12 24-15 37c-5 20-10 43-2 64l6 11 1 2 6 12c6 17 0 35-5 49l-6 16-1 5-7 21c-9 34-6 69 6 99l4 9 8 19c4 16 2 34 1 50l-2 26c0 9 1 19 3 28 6 24 19 44 37 56 33 22 75 17 112 11l9-1Z"/>
    <path d="M866 759c-19 0-38-12-58-24-25-15-50-30-76-26-40 7-86 13-121-11-21-13-35-35-41-62-3-10-4-20-4-30l2-28c2-18 4-36-1-53l-8-21-4-10a172 172 0 0 1-1-130l1-2 2-5 6-15c5-16 11-34 5-52l-6-12-2-3-6-12c-9-23-4-48 2-70 3-14 8-29 17-41 8-10 24-19 39-15 7 2 13 7 19 11 9 7 18 13 29 11 6-2 11-6 16-11 21-19 46-40 73-33 13 3 24 12 34 20 14 11 27 22 43 20 12-1 22-9 31-16l12-9c12-8 29-12 45-9 8 1 15 5 22 8l14 7c8 2 17 2 26 1l11-1h17l18-1 42-1 31-1c57-2 123-4 181 19 8 3 16 7 22 13 5 5 7 12 10 19 10 26 18 55 25 91l12 63a1211 1211 0 0 0 26 119c6 25 13 49 11 74-1 14-5 28-11 42-8 19-20 36-31 53-9 12-20 28-35 37-14 9-31 11-46 12-34 2-59 24-84 44-22 20-44 38-70 38-9 0-18-2-26-6a347 347 0 0 0-127-17c-22 2-43 4-61 17-8 5-16 8-25 8Zm-124-52c23 0 45 13 67 26 28 18 55 34 81 17 18-13 40-15 62-17l13-2c24-2 92 8 114 18 38 17 66-6 95-31 25-21 50-42 85-45 15-1 31-3 45-11 15-9 26-25 34-37 12-17 23-34 31-52 7-15 10-28 11-42 2-24-5-49-11-73l-3-11c-10-36-16-73-23-108l-11-63c-8-36-16-65-26-92-2-6-5-13-9-18-6-6-14-10-21-13-58-23-124-20-181-18l-31 1-42 1h-18l-17 1h-11c-9 1-18 2-26-1-6-1-10-4-15-6-7-4-13-8-21-9a65 65 0 0 0-56 18c-10 8-19 16-32 17-17 2-31-10-44-20-10-9-21-18-33-21-27-6-51 14-72 33-5 5-11 10-17 11-11 3-21-4-30-11-6-4-12-9-19-11-14-3-29 5-37 15-9 12-13 26-17 40-5 22-10 47-1 69l6 12 1 3c3 4 5 8 6 13 6 18 1 37-5 53l-5 15-2 5-1 2-7 23c-9 36-6 73 7 106l4 9 9 21c5 18 3 36 1 54l-2 28 3 30c6 27 21 48 40 61 36 23 81 17 121 11l10-1Z"/>
    <path d="M859 784c-20 0-41-13-62-26-26-16-53-33-81-28-43 8-92 14-130-11-22-14-37-37-44-66-3-11-4-22-4-33l3-29c2-20 4-39-2-58-2-8-5-15-9-22l-4-10a185 185 0 0 1-1-141v-2l3-6 5-15c6-17 12-37 6-55a82 82 0 0 0-8-17l-6-13c-10-24-5-51 1-75 4-15 9-31 19-43 9-11 25-21 42-16 7 2 14 7 21 12 9 7 19 14 30 11 6-1 12-6 18-11 22-21 49-43 78-36 13 3 25 13 36 22 15 12 28 23 46 22 13-2 23-10 33-18l13-10c13-8 31-12 48-10 9 1 17 5 24 9l15 7c8 3 19 2 28 1l12-1h38l44-2 34-1c62-2 132-5 195 20 8 3 17 7 23 14 5 6 8 13 11 20 10 29 18 60 26 99l13 67c6 38 13 78 23 116l4 13c7 25 14 52 12 78-1 15-5 30-12 45-9 20-21 38-33 56-10 14-21 31-38 41-15 8-32 11-49 12-37 2-64 25-90 47-24 21-47 41-75 41-10 0-20-3-28-7a369 369 0 0 0-136-18c-24 2-46 4-66 18-8 6-17 9-26 9Zm-133-56c25 0 48 14 72 28 30 19 59 36 86 18 20-15 43-17 67-19l14-1c26-3 98 9 122 20 41 18 71-7 102-34 26-22 53-46 90-48 17-1 35-3 49-12 16-9 28-26 37-40 13-18 24-36 33-55 7-16 11-30 12-45 2-26-5-52-12-78l-3-12c-11-39-17-78-24-117l-12-67c-8-39-17-70-27-98l-10-20c-6-7-15-10-23-14-62-24-132-22-194-19l-34 1-44 1-20 1a9228 9228 0 0 1-58 0l-16-7c-7-4-14-8-23-9-17-2-34 1-47 10l-13 9c-10 9-21 17-34 19-18 1-33-11-47-22-11-9-22-19-36-22-28-7-54 15-76 35-6 6-12 11-19 12-12 3-22-5-31-12-7-5-14-10-21-12-15-4-31 5-40 16-9 12-14 28-18 43-6 23-12 50-2 74l7 12 1 3 7 14c6 19 0 39-6 57l-5 14-3 7-1 2-7 25c-10 38-7 79 8 114l5 10c3 7 7 15 9 23 5 18 3 38 1 58l-2 29c0 11 1 22 4 32 6 29 22 52 43 66 37 24 86 18 129 11l10-1Z"/>
    <path d="M852 808c-21 0-43-13-66-27-28-17-57-35-86-30-46 9-99 15-139-11-23-15-39-40-47-71-2-12-4-23-3-35l2-31c2-21 4-42-1-62l-10-24-5-10a197 197 0 0 1-2-150l1-2 3-8 5-15c7-18 13-39 6-59-1-5-4-10-6-14l-2-3-7-14c-11-26-4-55 2-80 4-16 10-33 20-46 10-12 27-22 45-18 8 3 15 8 22 14 10 7 20 15 32 12 7-1 13-6 19-12 24-22 52-46 83-38 15 3 27 14 39 24 16 12 30 24 49 23 14-2 25-11 35-20l14-10c14-10 33-14 52-11 9 1 17 5 25 10l16 7c9 3 20 2 30 1l13-1 19-1a7148 7148 0 0 1 69-2l36-1c66-3 141-6 208 21 9 3 18 8 25 15 5 6 8 14 11 22 11 30 20 63 29 105l12 71c7 41 15 84 26 125l3 14c8 27 16 55 13 84-1 15-6 31-13 47-9 21-22 40-36 60-10 15-22 33-40 43-16 9-35 12-53 13-39 2-67 27-95 51-34 28-66 56-111 35a400 400 0 0 0-144-19c-26 2-50 4-71 19-8 6-17 9-27 9Zm-141-59c26 0 51 15 76 30 32 20 63 39 91 18 22-15 46-17 72-19l14-2c28-3 105 10 131 22 44 19 75-7 108-36 29-24 58-49 97-51 18-1 37-4 52-13 18-10 30-28 40-42 13-20 26-39 35-59 8-17 12-32 13-48 3-28-5-56-13-83l-3-13c-11-42-18-84-25-125l-13-72c-9-41-18-75-29-105-2-7-5-15-10-21-7-7-16-11-25-15-66-26-141-23-207-20l-36 1-47 2h-22l-19 1-12 1c-11 1-22 2-31-1l-17-8c-8-4-15-8-25-9-18-3-36 1-50 10l-13 11c-11 9-23 18-37 19-19 2-34-10-50-23-12-10-24-20-38-23-30-8-58 15-82 37-6 6-12 11-19 13-13 3-24-5-34-13-7-5-14-11-22-13-16-4-33 5-43 17-10 13-15 29-19 45-7 25-13 54-2 79l7 14 1 3 7 14c7 21 1 42-6 61l-5 14-4 9v2c-4 8-6 17-8 26a196 196 0 0 0 15 132c3 8 7 16 9 25 6 20 4 41 2 62l-3 31c0 12 2 23 4 35 7 30 24 55 46 69 40 26 92 20 137 12l12-1Z"/>
    <path d="M845 832c-23 0-46-14-70-29-30-18-60-36-92-31-48 9-104 16-147-12-24-15-42-42-49-75-3-12-4-24-4-37l2-33c2-22 5-44-1-65l-11-26-5-11a210 210 0 0 1-3-159l1-3a1204 1204 0 0 1 9-24c7-19 14-41 7-63l-7-15-2-3-8-15c-11-27-4-58 3-85 4-17 10-35 21-48s29-24 47-19c9 3 17 9 24 14 11 9 22 17 35 14 7-2 13-7 20-13 25-24 55-49 88-41 15 4 28 15 41 26 16 13 32 26 52 24 14-1 26-11 37-21l15-11c15-10 35-14 55-11 10 1 19 5 27 10 5 3 11 6 18 8 9 3 21 2 32 1l13-1 20-1 23-1 51-2 38-1c70-3 151-6 221 22 10 4 20 8 27 16 6 7 9 15 12 23 11 32 21 68 30 112l13 76c8 44 15 89 27 133l4 14c8 29 16 59 13 90-1 16-6 33-14 50-10 22-24 43-38 64-11 15-24 34-42 45-17 10-37 12-57 14-41 2-72 28-102 54-27 23-53 45-84 45-11 0-21-2-33-8-26-12-109-25-138-22l-15 1c-27 3-53 5-75 21-9 6-19 10-29 9Zm-150-63c28 0 55 17 81 33 34 21 67 41 97 19 23-16 48-18 75-21l16-1c30-3 112 10 139 23 46 21 80-8 115-38 30-25 61-52 103-54 19-1 39-4 56-13 18-11 31-30 41-45 15-21 28-42 38-63 8-18 13-34 14-51 3-30-5-59-13-88l-4-14c-12-44-19-90-27-134l-13-75c-9-45-18-80-30-112-3-9-6-16-11-23-7-7-17-12-26-16-71-27-151-24-221-21l-38 1-51 2-23 1h-20l-13 1c-11 1-23 3-33 0l-18-9c-8-4-16-8-26-10a79 79 0 0 0-68 23c-12 9-24 19-39 21-21 2-36-11-53-25-12-10-25-21-41-25-31-8-61 17-86 40-7 7-13 12-21 14-14 3-25-6-36-14-7-6-15-12-23-14-17-5-35 5-45 18-11 13-17 30-21 48-7 26-14 57-3 83l8 15 1 3 8 16c7 22 0 44-7 64a837 837 0 0 1-9 24l-1 2-8 28a208 208 0 0 0 16 141l11 26c6 21 3 44 1 66l-2 33c0 12 1 25 4 37 7 32 24 58 48 74 43 27 98 20 146 11l12-1Z"/>
    <path d="M837 857c-23 0-48-15-73-31-32-19-64-39-97-33-51 10-110 18-155-12-26-16-45-45-53-80-3-13-4-26-4-39l3-35c2-23 4-47-2-69l-11-28-6-11a223 223 0 0 1-3-169v-2l4-11 6-15c7-20 15-44 7-66l-7-16-2-4-8-15c-12-29-5-62 3-90 5-19 10-37 22-52 11-13 31-25 50-19 10 3 18 9 26 15 11 9 22 18 36 15 8-2 14-8 21-14 27-25 59-52 93-43 17 4 31 16 44 27 17 14 34 28 55 26 15-2 28-12 40-22l15-12c16-11 37-16 58-13 11 2 20 6 29 11l19 8c10 4 22 2 34 1l14-1 18-1a9292 9292 0 0 1 87-3l35-1c75-3 160-7 235 23 10 4 21 9 28 17 6 7 9 16 13 24 12 35 22 73 31 120l14 79c8 47 16 95 28 142l4 15c8 31 17 63 14 95-2 17-6 35-15 53-11 23-25 45-40 67-12 17-26 37-45 48-18 11-40 13-60 14-44 3-77 31-108 58-38 32-74 63-124 39a445 445 0 0 0-163-22c-28 2-55 5-79 22-9 6-19 10-31 10Zm-157-67c29 0 57 18 85 34 36 23 70 44 102 21 24-17 51-19 80-22l17-2c31-3 119 12 147 25 49 22 84-8 122-40 31-27 64-55 109-57 20-2 41-4 59-14 19-12 32-31 44-48 15-22 30-43 40-66 9-19 14-36 15-54 3-31-6-63-14-93l-4-15c-12-47-20-96-28-143l-14-79c-9-47-19-85-31-119-3-9-7-17-12-24-8-8-18-12-28-16-75-30-159-26-234-23l-35 1-59 2-28 1-18 1-14 1c-12 1-24 3-35-1l-19-8c-9-5-17-9-28-11a84 84 0 0 0-72 24c-12 10-25 21-41 23-22 2-38-12-56-27-13-11-27-22-43-26-34-8-65 17-92 42-7 7-13 13-22 15-14 3-26-6-37-15-8-6-16-12-25-15-19-5-38 5-48 19-12 14-18 32-23 50-7 28-14 61-2 89l7 15 2 4 8 16c8 23 0 47-7 68l-6 14-4 11-1 3-8 29a221 221 0 0 0 17 150l12 27c6 23 4 47 2 71-2 11-3 23-3 34 0 13 1 26 4 39 8 34 26 62 52 79 44 29 103 21 154 11l13-1Z"/>
    <path d="M830 881c-25 0-51-15-77-32-33-20-67-41-102-35-54 11-116 19-164-12-27-18-47-48-55-84-4-14-5-28-5-42l3-36c3-25 5-50-2-74-3-10-7-20-12-29l-6-12a235 235 0 0 1 1-193l6-15c8-21 15-46 7-70l-7-17-2-3-9-17c-12-30-5-65 3-94 6-20 12-39 24-55 12-14 33-26 53-20 10 3 19 10 27 16 12 10 24 19 38 15 9-1 15-7 23-14 28-27 62-54 98-45 17 4 32 16 46 28 18 15 36 30 58 27 16-1 29-12 42-23l16-13c17-11 40-16 62-13 11 1 21 6 30 11 6 3 13 7 20 9 11 3 24 2 36 1l15-1 19-1a18313 18313 0 0 1 92-4l37-1c79-4 169-8 248 24 11 4 22 9 30 18 6 8 10 17 13 26 13 36 23 76 33 126l15 84c8 49 16 101 29 150l4 15c9 33 18 67 15 101-2 18-7 37-16 56-11 25-26 48-43 71-12 18-26 39-47 51-19 11-42 13-63 14-47 3-81 32-114 61-31 25-59 50-95 50-11 0-23-2-36-8-29-14-122-30-154-26l-18 2c-30 2-58 5-83 23-11 7-22 10-33 10Zm-166-70c31 0 61 18 90 36 38 24 74 46 108 22 25-18 54-21 84-23l18-2c32-4 125 12 155 26 51 24 89-8 128-42 34-28 68-58 116-61 21-1 43-3 62-14 20-12 34-32 47-50 16-23 31-46 42-70 9-20 14-38 16-56 3-34-6-68-15-100l-4-15c-13-50-21-101-29-151-5-27-9-56-15-83-9-50-20-90-33-126-3-10-6-18-13-25-7-9-18-14-28-18-79-31-169-28-248-24l-37 1a9971 9971 0 0 1-92 4l-19 1-15 1c-13 1-26 2-37-1-7-2-14-6-20-9-9-5-18-10-30-11-21-3-44 2-60 13l-16 13c-13 10-26 22-43 23-23 3-41-12-59-28-14-11-28-23-45-28-36-8-69 19-97 45-7 7-14 13-23 15-15 4-28-6-40-15-8-7-17-13-26-16-20-6-40 5-51 19-13 15-18 34-24 54-8 30-15 64-3 93l8 17 2 3 8 18c8 24 1 49-7 71l-6 15-4 12-1 2-10 32c-11 49-6 100 14 145l6 12c4 10 9 19 12 30 7 24 4 49 2 74l-3 36c0 14 1 28 4 41 9 36 28 66 55 83 47 31 109 23 162 12l14-1Z"/>
    <path d="M823 906c-26 0-53-17-81-34-35-22-71-44-107-37-58 11-123 20-173-12-29-19-49-50-58-89-3-14-5-29-5-44l3-38c3-26 6-53-2-78l-12-30-7-13a248 248 0 0 1-5-188l1-2 5-14 6-15c8-22 16-49 8-73-2-7-5-13-9-18l-2-4-9-17c-13-32-5-69 4-100 6-21 12-41 25-57 13-15 35-28 56-21 11 3 20 10 28 17 13 10 26 19 41 16 9-2 16-8 23-15 30-28 65-57 104-48 18 5 33 17 48 30 19 16 37 31 61 29 17-2 31-14 44-25l17-13c18-12 42-17 65-15 12 2 22 7 32 12l21 10c11 3 25 2 38 0l16-1 20-1a38107 38107 0 0 1 97-4l39-1c84-4 178-8 262 25 11 4 23 10 31 19 7 8 10 17 14 27 13 38 24 81 34 134l15 87c9 53 18 107 31 159l5 16c9 35 19 70 15 106-2 19-7 39-17 59-12 26-28 50-45 75-13 19-28 40-50 53-20 11-44 14-66 15-49 3-86 34-121 64-42 36-81 70-137 44-31-15-128-31-162-28l-19 2c-32 3-61 6-88 25-11 8-22 11-34 11Zm-174-74c32 0 63 19 94 38 40 25 78 48 113 23 27-19 57-22 89-25l19-2c34-3 132 13 163 28 54 25 93-8 135-44 35-30 72-61 122-64 22-1 46-4 65-15 22-12 36-34 50-53 17-24 33-48 44-73 10-21 15-40 17-59 3-36-6-71-15-105l-5-16c-13-53-22-107-31-160l-15-87c-10-53-21-95-34-133-4-10-7-19-14-26-7-10-19-15-30-19-83-33-178-29-261-25l-39 1a12361 12361 0 0 1-97 4l-20 1-16 1c-13 2-27 3-39 0l-21-10c-10-5-19-10-31-11-23-3-47 2-63 13l-18 14c-13 11-27 23-45 25h-5c-22 0-39-14-57-29-15-13-30-26-48-30-37-9-72 20-101 47-8 8-16 14-25 16-16 4-28-6-42-17-8-6-17-13-27-16-21-6-42 6-54 20-13 16-19 36-25 57-9 31-17 66-4 98a164 164 0 0 0 11 21c4 5 6 12 9 18 8 25 0 52-8 75l-6 15-5 13-1 3-10 33c-11 52-6 106 15 153l7 13 13 31c7 25 4 52 1 78l-2 38c-1 15 1 29 4 43 9 39 29 70 57 88 50 32 114 23 171 12l15-1Z"/>
    <path d="M816 930c-28 0-56-17-85-35-37-23-74-46-113-39-60 12-128 21-181-13-30-19-51-52-61-93-3-15-5-30-4-46 0-13 1-27 3-40 2-27 5-55-2-81-4-12-9-22-14-33l-6-13a261 261 0 0 1 0-215l6-15c8-24 17-51 8-77a112 112 0 0 0-11-23l-9-18c-14-34-5-71 4-104 6-22 12-44 26-60 13-16 37-29 59-22 11 3 21 10 30 18 13 10 26 20 42 17 9-2 17-9 25-16 31-30 68-60 108-50 20 4 36 18 51 31 20 17 39 33 64 31 18-2 32-15 46-26l18-15c19-12 44-18 68-15 13 2 24 7 34 13 7 3 14 7 22 9 12 4 27 3 40 1l17-1 21-1a23861 23861 0 0 1 102-5l41-1c88-4 187-9 275 26 12 5 24 10 33 20 7 8 11 18 14 29 14 40 26 84 36 140l16 91c9 56 18 113 32 168l5 17c10 36 20 73 16 111-2 20-8 41-18 62-12 27-29 52-47 78-14 20-30 43-53 56-21 12-46 15-69 16-52 3-90 35-127 67-44 38-86 73-144 46a513 513 0 0 0-190-27c-33 3-65 5-92 25-12 9-24 12-36 12Zm-183-77c34 0 67 20 99 40 42 26 82 51 118 24 28-21 60-23 94-26l19-2c37-4 139 13 172 29 57 27 98-8 142-46 37-31 75-64 127-67 24-1 49-4 69-16 23-13 39-35 52-55 18-26 35-51 47-77 10-22 16-42 18-62a314 314 0 0 0-21-127c-14-55-23-113-32-168l-16-92c-10-55-22-99-36-139-3-11-7-20-14-28-8-10-20-15-32-20-87-35-186-30-274-26l-41 2-69 3-33 1-21 1-16 1c-14 2-29 3-41-1-9-2-16-6-23-10-10-5-20-10-33-12-24-3-49 3-66 15L804 9c-15 12-29 25-48 27h-6c-22 0-40-15-59-31-16-13-31-27-50-31-39-10-76 20-107 49-8 8-16 15-25 17-17 4-30-7-44-18-10-7-19-14-30-17-21-7-43 6-56 21-14 16-20 37-26 59-9 33-18 70-4 103a169 169 0 0 0 11 22c4 6 7 13 9 19 9 27 0 55-8 79l-6 15a1343 1343 0 0 0-17 52c-12 55-6 112 17 161l6 14 14 32c8 27 5 55 2 82l-3 40c-1 16 1 31 4 46 10 40 31 72 61 92 26 17 58 23 90 23a477 477 0 0 0 104-12Z"/>
    <path d="M809 955c-29 0-59-18-90-38-37-23-77-47-117-40-63 13-134 23-189-13-32-20-55-55-64-98-4-15-5-32-5-48l3-42c3-28 6-58-2-85l-14-34-7-14a274 274 0 0 1-7-207l1-3 6-15 6-16c9-25 18-53 8-81a119 119 0 0 0-11-24l-10-19c-14-35-5-74 4-109 7-23 14-45 28-63 14-16 38-30 62-23 11 4 22 12 31 19 14 12 28 22 44 19 10-2 18-9 26-17 33-31 72-63 114-53 20 5 37 19 53 33 21 18 41 35 67 32 19-2 34-15 49-27 6-5 12-11 19-15 18-14 45-19 71-16 13 1 24 7 35 13 7 4 15 8 23 10 13 4 28 2 42 1l18-2a19843 19843 0 0 1 129-5l43-2c92-5 196-9 289 27 12 5 25 11 34 21 7 9 11 19 15 30 15 42 27 89 38 147l16 96a1961 1961 0 0 0 38 194c10 38 21 77 17 116-2 21-8 43-19 65-13 28-30 55-49 82-15 21-31 45-55 58-22 13-49 16-74 17-54 3-94 37-132 70-35 30-68 58-109 58-13 0-27-3-42-10a535 535 0 0 0-199-29c-35 3-68 6-97 27-12 9-25 13-37 13Zm-191-81c35 0 69 21 103 42 44 27 85 53 124 25 29-22 62-25 98-28l20-2c38-4 146 15 180 31 59 28 103-9 148-48 39-33 79-67 134-70 25-1 51-4 73-16 23-14 40-38 54-58 19-27 37-54 49-81 11-23 17-44 19-65 4-39-7-78-17-116l-4-17c-15-58-25-119-34-177l-16-95c-11-59-23-105-38-147-4-11-8-21-15-29-8-10-21-16-33-21-92-36-196-31-288-27l-43 2a17722 17722 0 0 1-189 6c-9-2-17-6-24-10-11-6-21-11-35-13a103 103 0 0 0-88 30c-15 13-30 26-50 28l-6 1c-24 0-42-16-62-33-16-14-33-28-53-33-41-10-79 22-111 52-9 9-17 16-27 18-18 4-32-7-46-19-10-7-20-15-31-19-22-6-46 7-59 23-14 17-21 39-27 62-10 34-19 73-5 108a179 179 0 0 0 12 23c4 6 7 13 9 20 10 28 1 57-8 82a1044 1044 0 0 1-12 31l-1 3-11 36c-12 57-6 117 18 169l7 14c5 11 11 22 14 34 8 28 5 58 2 87l-3 41c0 16 1 32 5 48 10 42 32 76 63 96 28 18 60 25 94 25a497 497 0 0 0 110-13Z"/>
    <path d="M801 979c-29 0-60-19-93-39-39-24-80-50-122-42-66 13-141 24-198-13-33-21-57-58-67-102-4-17-5-34-5-51l3-43c3-30 7-61-2-90-4-12-9-24-15-35l-7-15a287 287 0 0 1-8-216l1-3 6-17 6-16c10-26 19-56 10-84l-10-21-2-4-10-20c-16-37-6-78 4-114 7-24 14-48 30-66 14-17 39-31 64-24 12 4 22 12 33 20 14 12 28 23 46 19 10-2 18-9 27-17 34-33 75-66 119-55 21 5 38 20 55 34 22 19 43 37 70 34 20-2 35-16 51-29l20-16c19-14 47-20 74-17 14 2 26 8 37 14l25 11c13 4 28 2 44 0l18-1a17859 17859 0 0 1 135-6l45-2c97-5 206-10 302 28 13 5 27 11 36 22 8 9 12 20 16 32 15 44 27 93 39 154l17 99c9 61 19 124 35 185l5 19c10 39 21 80 17 121-2 22-8 45-20 69-13 29-32 56-51 85-16 22-33 46-58 61-23 13-51 16-77 17-57 3-98 38-139 73-36 31-71 61-113 61-14 0-28-3-44-11-36-17-147-36-187-32l-21 2c-37 3-71 6-101 28-13 10-26 13-40 13Zm-199-84c37 0 73 22 108 43 46 29 89 56 129 26 31-22 66-25 103-28l21-2c40-4 152 15 188 32 62 30 107-9 155-50 41-35 83-70 140-73 26-1 53-4 76-17 24-14 42-39 57-61 19-28 38-55 51-84 11-24 18-46 20-68 4-41-7-81-17-121l-5-18c-16-61-26-124-36-185l-16-100c-12-61-24-110-39-154-4-11-8-22-16-30-9-11-22-17-35-22-96-38-205-33-300-28l-46 2a18597 18597 0 0 1-153 7c-15 2-32 4-45 0l-25-11c-11-6-22-12-36-13a107 107 0 0 0-93 32c-15 13-31 27-52 29-28 3-49-15-71-34-17-14-34-29-55-34-43-11-83 22-117 54-9 9-17 16-28 19-18 4-33-8-48-20-10-8-20-16-32-20-23-7-48 7-62 23-15 19-22 41-29 65-10 36-19 77-4 113a187 187 0 0 0 12 24l10 21c10 29 0 60-10 86l-6 16-6 16-1 3-11 39c-13 59-6 122 19 176l7 15c6 11 11 23 15 36 9 29 6 60 3 90l-4 44c0 16 2 33 5 49 10 44 34 80 66 101 57 37 131 26 196 13l17-1Z"/>
    <path d="M794 1004c-31 0-63-20-97-41-41-26-84-52-128-44-68 14-146 25-206-14-34-22-59-60-69-106-4-17-6-35-6-53l4-45c3-31 6-63-3-94-4-12-10-25-16-37l-7-15a299 299 0 0 1-9-226l1-3 7-18 6-16c10-27 20-58 10-88-2-8-6-15-10-21l-2-5-11-21c-16-38-6-81 5-119 7-25 15-49 31-68 15-18 41-33 67-25 12 4 23 13 34 21 15 12 30 24 48 20 11-2 19-10 28-18 36-34 78-69 124-58 22 6 40 21 58 36 23 20 45 38 73 35 20-2 37-16 53-30l21-16c20-15 49-21 77-18 15 2 27 8 39 14 8 4 16 9 26 11 13 5 30 3 46 1l19-2 62-3 79-3 47-2c101-5 215-11 316 29 13 5 27 12 37 23 8 10 12 21 17 33 15 46 28 97 40 161l17 104a2131 2131 0 0 0 42 213c11 41 22 83 18 126-2 23-9 47-20 72-15 30-33 58-55 88-16 23-34 49-60 64-24 14-53 17-80 18-59 3-103 40-145 76-50 43-98 84-164 52-37-18-154-38-195-33l-22 2c-39 3-75 6-106 29a67 67 0 0 1-41 14Zm-207-89c38 0 76 24 112 46 48 30 93 58 135 27 32-23 68-26 106-30l23-2c41-4 158 16 196 34 65 31 112-9 162-52 42-36 86-74 146-76 27-2 55-5 79-18 26-15 44-40 59-63 22-31 40-58 54-88 12-25 19-48 21-71 4-42-7-85-18-126l-5-19c-16-64-27-130-37-194l-17-104c-12-63-25-114-41-160-4-12-8-23-16-32-9-11-23-18-36-23a760 760 0 0 0-314-29l-48 2a23027 23027 0 0 1-207 8c-9-3-18-8-26-12-12-6-24-12-38-14a112 112 0 0 0-97 34c-16 14-33 28-54 31-29 3-51-16-74-36-18-15-36-30-57-35-45-12-87 23-122 56-9 9-18 17-29 19-20 4-35-8-51-20-10-9-21-17-33-21-24-7-50 7-65 24-15 19-23 43-30 68-11 37-20 80-5 118l11 20 2 4c4 7 8 15 10 22 10 31 0 62-10 90a1420 1420 0 0 1-12 34l-2 3-11 40c-13 62-6 128 20 184l8 15c6 12 12 25 16 38 9 30 5 63 2 94-2 15-3 31-3 46-1 17 1 34 5 51 10 46 35 84 68 106 60 38 137 27 205 13l18-2Z"/>
    <path d="M787 1028c-32 0-66-20-101-42-43-27-87-55-133-46-71 15-152 27-215-14-35-23-61-62-72-111-4-18-6-36-6-54l4-48c3-32 7-66-2-97-5-14-11-27-17-39l-8-16a313 313 0 0 1-1-257l6-17c11-28 21-61 10-92a133 133 0 0 0-13-27l-11-21c-16-40-6-85 6-124 7-26 15-52 32-71 15-19 43-34 70-26 13 4 24 13 35 22 16 13 32 25 51 21 11-3 19-10 29-19 37-35 81-72 129-60 23 6 42 22 60 38 24 20 47 39 76 36 21-2 38-17 55-31 7-6 14-13 22-18 21-15 52-22 81-18 15 2 28 8 40 14 8 5 17 9 27 12 14 4 31 2 48 1l20-2 65-3 82-4 50-2c104-6 223-11 328 30 14 6 29 13 39 24 8 10 13 22 17 35 17 47 30 101 42 167l18 108a2218 2218 0 0 0 43 223c12 42 24 87 19 131-2 24-9 49-21 75-15 31-35 60-57 92-17 24-35 51-63 66-25 14-55 18-83 19-62 3-107 41-151 79-40 34-77 66-123 66-15 0-31-4-48-12-39-19-160-39-203-35l-24 2c-39 4-77 7-110 31a69 69 0 0 1-42 14Zm-216-92c40 0 79 24 117 48 49 31 97 60 140 28 33-24 71-28 111-31l23-2c44-5 166 16 205 35 67 33 116-9 168-54 44-38 90-77 153-79 28-2 58-5 82-19 27-15 46-42 62-65 22-32 42-61 56-92 12-26 19-50 22-74 4-44-7-88-19-131l-5-20c-17-67-28-136-38-202l-18-108c-12-67-26-120-42-168-4-12-9-24-17-33a94 94 0 0 0-38-24c-104-41-223-35-327-30l-50 2a28908 28908 0 0 1-167 9c-17 2-34 4-49-1-10-3-19-7-27-12-12-6-24-12-39-14-29-4-59 3-80 18l-21 17c-17 15-35 30-57 32-30 4-53-16-77-37-19-15-37-31-60-37-46-12-90 25-126 59-10 10-19 18-31 20-20 4-36-8-52-21-11-9-22-18-35-22-26-8-52 7-68 25-16 20-24 44-31 70-11 39-22 84-5 123l10 21 3 5 11 23c10 31 0 64-11 93l-6 16-7 19-1 4a311 311 0 0 0 10 234l7 15c6 12 13 25 17 39 9 32 6 66 2 99-1 15-3 31-3 47-1 18 1 36 5 54 11 48 36 86 72 109 61 40 142 28 213 14l18-2Z"/>
    <path d="M780 1053c-34 0-68-22-105-44-44-28-91-57-138-48-74 15-158 28-223-14-37-24-64-65-76-116-4-18-6-37-5-56 0-17 2-33 3-49 4-34 8-69-2-102-5-14-11-28-18-41l-8-16a325 325 0 0 1-10-245l1-3 8-20 6-17c11-29 21-63 11-95a138 138 0 0 0-14-28l-11-23c-17-41-6-88 5-129 8-27 16-53 34-74 16-19 45-35 73-26 13 4 25 13 37 23 16 13 32 26 52 22 11-3 21-11 31-20 38-37 84-75 134-63 23 6 43 23 62 40 25 21 48 41 79 38 22-3 40-18 57-33l23-18c22-16 54-23 84-20 16 2 29 9 42 16 9 4 18 9 28 12 15 4 33 2 50 0l21-2 68-3 85-4 52-2c109-6 232-12 341 31 15 6 30 13 41 25 9 11 13 23 18 36 17 50 31 105 43 175l19 112c11 69 22 141 39 210l6 22c12 44 24 90 19 136-2 25-10 51-22 78-16 32-36 62-59 96-17 24-37 52-65 68-26 15-58 18-87 20-65 3-112 43-157 82-55 47-107 91-179 56a625 625 0 0 0-235-34c-41 4-80 7-114 32a73 73 0 0 1-44 15Zm-224-96c42 0 82 25 121 50 51 32 100 62 146 29 34-25 73-29 115-32l24-3c45-4 172 18 213 37 70 34 121-9 175-56 46-39 93-80 159-83 29-1 60-4 85-19 28-16 48-43 65-68 23-33 43-63 59-95 12-27 19-52 22-77 4-46-8-92-19-136l-6-21c-17-70-29-141-40-211-5-37-11-75-18-112-13-69-26-125-43-174-5-13-9-25-18-35a97 97 0 0 0-39-25 821 821 0 0 0-341-31l-52 2-85 4-68 4-20 1c-18 2-36 5-52 0-10-3-19-8-28-12-13-7-25-13-41-15-30-4-61 3-83 19-8 5-15 11-22 18-18 15-36 30-59 33h-7c-28 0-50-19-73-38-19-17-39-33-62-39-49-12-94 25-132 61-10 10-19 18-32 21l-8 1c-17 0-31-12-46-24-11-9-23-18-36-22-27-8-55 7-70 26-17 20-26 46-33 73-12 40-23 87-6 127l11 23 3 4 11 24c11 33 0 67-11 97l-6 17-8 20-1 3a323 323 0 0 0 10 243l8 16c7 13 14 27 18 41 10 33 6 69 3 103-2 16-4 32-4 49 0 19 2 37 6 56 11 50 37 90 74 114 64 41 148 29 221 14l20-2Z"/>
    <path d="M1234 1077c-16 0-34-4-53-13a648 648 0 0 0-244-35c-43 3-83 7-119 33-48 35-99 3-154-31-46-29-94-59-143-49-77 16-165 29-232-14-39-25-66-68-78-120-5-20-7-40-6-59 0-17 2-35 4-51 3-35 7-72-3-106-5-15-12-29-18-42l-9-17a338 338 0 0 1-11-254l1-4a1041 1041 0 0 1 15-38c11-30 22-65 11-99l-11-24-3-5c-4-7-9-15-12-23-18-43-6-92 6-134 8-28 17-56 35-77 17-20 47-37 76-28 14 5 26 15 38 24 17 14 34 28 54 23 12-2 22-10 32-20 40-38 88-78 139-65 25 6 45 24 65 41 26 22 50 43 82 39 23-2 41-18 59-34l24-19c23-16 56-24 88-20 16 2 30 9 43 16 9 4 19 9 29 12 16 5 34 3 53 1l21-2 71-4 88-4 54-3c113-5 241-12 355 33 15 6 31 14 42 27 9 10 14 23 19 36 17 52 32 110 45 182l19 116c11 72 22 147 41 219l5 23c13 46 25 94 20 141-2 26-10 53-23 81-16 34-37 65-61 99-18 26-39 55-68 72-27 15-60 18-90 20-67 3-116 45-164 85-42 37-83 71-132 71Zm-257-54c56 0 168 21 205 39 74 36 127-10 183-58 47-41 97-83 164-86 31-1 63-4 90-19 29-17 49-46 67-71 24-34 45-66 61-99 13-28 20-54 23-80 5-47-8-95-20-141l-6-22c-18-72-30-147-41-220l-19-116c-13-72-27-129-45-181-4-13-9-26-18-36-10-12-26-20-41-25a852 852 0 0 0-354-33l-54 3-88 4a38013 38013 0 0 0-92 5c-18 2-38 5-54 0-10-3-20-8-29-13-13-7-27-14-43-16-31-3-63 4-86 20l-23 19c-18 16-37 32-61 35-33 3-57-18-83-40-20-17-40-35-64-41-51-12-97 27-137 65-11 10-21 18-33 21-22 4-39-9-57-24-11-9-24-19-37-23-28-9-57 7-73 27-18 21-27 48-35 75-12 42-23 91-6 133l12 23a2680 2680 0 0 1 14 29c12 35 1 70-11 101l-6 17-8 21-2 4a343 343 0 0 0 20 269c7 14 14 28 18 43 11 34 7 71 3 106l-4 51c0 19 2 39 6 58 12 52 39 94 77 119 34 21 73 29 113 29 39 0 79-7 117-15 50-10 99 20 146 49 53 34 104 65 151 31 36-27 77-30 120-34l25-2 15-1Z"/>
    <path d="M1244 1102c-17 0-35-4-55-14a672 672 0 0 0-253-37c-45 4-87 8-123 35-50 37-103 3-160-32-48-30-97-61-149-51-79 17-170 30-240-15-40-25-69-70-81-124-4-20-6-41-6-61 0-18 2-36 4-53 4-36 8-74-3-110-4-15-12-29-19-43l-8-18a351 351 0 0 1-13-264l2-3 8-23 7-17c11-31 23-68 11-102-2-9-7-18-11-25l-3-6c-5-7-9-15-12-24-19-44-7-95 6-139 8-29 17-57 36-79 18-21 49-38 79-29 14 5 27 15 39 25 18 15 36 29 57 24 12-3 22-11 33-21 41-40 90-81 144-67 25 6 47 24 67 42 27 23 52 45 85 41 24-3 43-20 62-36 7-7 16-14 24-19 24-17 58-25 91-21 17 2 31 9 45 16 9 5 19 10 30 13 16 5 36 3 55 0l22-2a58153 58153 0 0 1 165-8l56-3c117-6 250-12 368 34 16 7 33 14 44 28 9 10 14 24 19 38 18 54 33 113 47 188l19 120a2471 2471 0 0 0 49 251c12 48 25 98 20 147-3 27-10 55-24 84-17 35-39 67-64 103-18 26-39 57-70 74-28 16-62 19-94 21-69 2-120 46-169 88-44 38-86 74-137 74Zm-266-56c57 0 173 21 212 40 76 37 131-10 189-60 50-42 101-86 171-89 32-1 65-5 93-20 30-17 51-47 69-74 25-35 47-67 64-102 13-29 21-56 24-83 5-49-8-98-21-146l-6-23c-19-75-31-153-42-228l-20-120c-13-75-28-135-46-188-5-14-10-27-19-38-11-13-27-20-43-26-117-47-250-40-367-34l-55 3a43691 43691 0 0 1-188 10c-19 2-39 4-55-1-12-3-22-8-31-13-14-7-28-14-44-16-33-4-66 4-90 21-8 5-16 12-24 19-19 16-38 33-63 36l-8 1c-30 0-53-21-78-42-21-18-42-36-67-42-52-13-100 27-142 67-11 10-21 19-34 22-22 4-40-10-58-25-12-10-25-20-39-24-29-9-59 7-76 27-19 22-28 50-36 79-12 44-24 94-6 137l12 24 3 5c4 8 9 17 12 26 12 35 0 72-12 104a1577 1577 0 0 1-15 40l-1 3a351 351 0 0 0 20 280c8 14 15 28 20 44 10 35 6 74 3 110-2 18-4 35-4 53-1 20 1 40 6 60 12 54 40 98 80 123 34 23 75 30 116 30s83-7 122-15c52-11 102 21 151 51 55 35 108 68 156 32 38-28 80-31 125-35a1323 1323 0 0 0 42-3Z"/>
    <path d="M1254 1127c-18 0-37-5-57-14-44-22-185-47-235-42l-27 3c-46 4-90 8-128 36a80 80 0 0 1-49 16c-37 0-75-24-116-49-49-31-101-64-154-53-82 17-176 32-249-15-41-27-71-72-83-129-5-21-7-42-7-63l4-55c4-38 8-77-3-113-4-16-12-31-19-46l-9-18a363 363 0 0 1-13-273l1-4a1165 1165 0 0 1 16-41c12-33 24-70 12-106a151 151 0 0 0-15-31c-5-8-10-17-13-25-19-46-7-99 6-144 9-30 19-60 38-83 18-21 51-39 82-29 15 5 28 16 41 26 18 15 36 29 58 25 13-3 23-12 34-22 43-41 94-84 149-70 27 7 49 26 70 44 28 24 54 46 88 42 25-2 45-20 64-37l25-20c25-18 60-26 94-22 18 2 33 10 47 17 10 5 20 10 32 14 16 5 37 2 56 0l23-2a84105 84105 0 0 1 172-9l57-3c122-6 260-13 382 35 16 7 33 15 45 29 10 11 15 25 20 39 19 56 34 118 48 196l20 124c12 78 24 159 44 236l6 24c13 50 27 101 21 152-3 28-11 56-25 87-17 36-40 70-66 107-19 27-41 58-73 76-29 17-64 20-97 21-72 3-124 49-175 92-46 39-89 77-142 77Zm-276-59c59 0 180 22 220 42 79 39 136-10 196-62 51-44 104-89 177-92 33-1 67-5 96-21 31-18 53-49 72-76 26-37 49-70 66-106 14-30 22-58 25-86 5-51-8-102-21-151l-7-24c-19-78-32-159-43-237-7-41-13-83-21-124-13-77-29-139-48-195-4-14-10-28-19-39-11-13-28-21-44-27-122-48-259-41-381-35l-57 3a57701 57701 0 0 1-172 8l-23 3c-19 2-40 4-57-1-12-3-22-9-32-14-14-7-29-14-46-16a136 136 0 0 0-117 41c-20 17-40 35-66 38h-8c-31 0-56-21-82-43-21-18-42-37-68-43-54-14-104 28-147 69-11 10-22 19-35 22-23 5-42-9-61-25-12-10-26-21-40-25-30-10-61 7-79 28-19 23-28 52-37 82-13 45-25 97-7 142a229 229 0 0 0 16 30c5 8 9 17 12 26 12 37 0 75-12 108l-7 18-8 23-2 4a362 362 0 0 0 13 271l9 18c7 15 15 30 20 46 11 37 7 77 3 115-2 18-4 36-4 54-1 21 2 42 6 63 13 55 42 101 83 127 71 46 165 32 246 15 55-11 106 21 157 53 57 36 111 70 162 33 38-29 82-33 129-37a1340 1340 0 0 0 43-3Z"/>
    <path d="M1264 1151c-18 0-38-4-59-14-46-23-192-49-243-43l-28 2c-48 5-93 8-132 38a83 83 0 0 1-51 17c-38 0-78-25-120-51-51-33-104-66-159-55-86 18-183 33-257-15-43-28-74-75-87-134-5-21-7-43-6-65 0-19 2-38 4-56 4-40 8-80-3-118a299 299 0 0 0-30-65 376 376 0 0 1-14-284l1-4 10-24 7-18c12-34 24-73 12-110l-12-27-4-5-13-26C61 47 73-8 87-55c9-31 19-61 39-85 19-22 52-40 84-30 16 5 30 16 43 27 19 16 38 30 60 26 14-3 24-12 36-23 44-43 97-87 154-72 27 7 50 26 72 45 29 25 56 48 91 44 26-3 46-21 66-38 8-8 17-15 26-21 26-19 62-27 98-23 18 2 33 10 48 17 10 6 21 11 33 14 17 6 38 3 58 1l24-3 79-4 99-5 59-3c126-6 269-13 395 36 17 7 35 15 47 30 10 11 15 26 21 41 19 57 35 122 49 202l21 128c12 81 25 165 45 245l6 25c14 51 28 104 22 158-3 28-11 58-26 89-18 37-41 72-68 110-20 29-43 61-76 79-30 17-66 21-100 22-74 3-129 50-182 95-47 41-92 79-146 79Zm-286-60c62 0 186 23 228 43 82 40 140-10 203-64 53-45 108-92 183-95 34-2 70-5 99-22 32-18 55-50 75-78 27-38 50-73 68-110 14-31 23-60 26-89 5-52-9-105-22-156l-6-25c-21-81-33-164-46-245l-20-128c-15-81-30-145-50-202-5-15-10-29-20-41-12-14-29-22-46-28-126-50-268-43-394-36l-59 3a38658 38658 0 0 1-178 9l-23 2c-21 3-42 5-60 0-12-4-23-9-33-14-15-8-30-15-48-18-34-4-70 5-95 23-9 6-18 13-26 21-20 17-41 35-68 39-36 4-64-20-93-45-21-19-44-38-71-45-56-14-107 30-151 72-12 11-23 20-37 23l-9 1c-20 0-36-13-54-27-13-11-26-22-41-27-31-9-64 8-82 30-20 23-29 53-38 84C76-7 63 46 83 93c3 9 8 17 13 26l3 5 13 27c12 38 0 78-13 112l-7 18-9 24a305 305 0 0 0-15 54 373 373 0 0 0 36 250c8 15 16 31 21 47 12 39 7 79 3 119-2 18-4 37-4 56 0 22 2 44 7 65 12 58 43 104 85 132 74 47 170 32 255 15 56-12 110 22 162 55 59 37 115 72 167 33 40-29 85-33 133-37l28-3h17Z"/>
    <path d="M1274 1176c-19 0-39-5-61-15a740 740 0 0 0-281-42c-49 4-95 8-136 38a86 86 0 0 1-52 18c-40 0-81-25-124-52-53-34-108-68-165-56-88 18-188 33-265-16-44-29-76-78-90-138-4-23-7-45-6-68 0-19 2-39 4-58 4-41 9-83-3-122-5-17-14-33-21-48l-10-19a389 389 0 0 1-13-297l9-25 7-19c13-35 26-75 13-113a164 164 0 0 0-16-34c-5-8-10-17-13-26-21-49-7-105 7-154 9-32 19-64 40-88 20-23 54-42 87-31 17 5 31 16 44 28 20 16 39 31 63 26 14-3 25-12 36-23 46-44 101-90 160-75 28 7 51 28 74 47 30 26 57 50 94 46 26-4 48-22 68-40l27-22c27-19 64-28 101-23 19 2 35 10 50 17 11 6 22 11 34 15 18 5 40 3 61 0l24-2a96097 96097 0 0 1 184-10l61-3c130-6 278-14 409 37 17 7 35 16 48 31 10 12 16 27 21 42 20 60 37 126 51 209l22 133a2721 2721 0 0 0 53 279c14 53 28 108 22 163-3 29-12 59-27 92-18 38-43 74-70 114-21 29-44 63-78 82-31 17-69 21-104 22-77 3-134 52-188 98-49 42-95 82-151 82Zm-296-63c64 0 193 24 236 45 84 42 145-10 209-66 55-47 112-95 190-98 35-2 72-5 102-23 34-18 57-52 77-81 28-39 52-75 71-113 15-32 24-62 27-92 5-54-9-109-23-161l-6-26c-21-83-34-170-47-254l-21-132c-15-83-31-150-51-209-6-15-11-30-21-42-12-14-30-22-47-29-130-51-278-44-408-37l-61 3a137366 137366 0 0 1-184 10l-24 2c-21 2-43 5-62 0-12-4-23-10-34-15-15-8-31-16-49-18-36-4-73 5-99 23l-27 22c-21 18-43 37-70 40l-9 1c-33 0-59-23-87-47-22-19-45-39-73-46-58-15-111 30-157 74-9 8-22 21-38 24-24 5-44-11-64-27-14-11-28-23-43-28-32-10-66 8-85 31-20 24-30 55-40 87C46-21 33 34 53 83l14 26 3 6c5 8 10 18 13 28 13 39 0 80-13 115l-7 19-10 25-1 4a383 383 0 0 0 14 290l10 19c8 16 16 32 21 49 12 40 8 82 4 123l-5 58c0 22 2 45 7 67 13 60 45 108 88 136 39 25 83 33 128 33s92-8 136-17c58-12 113 23 167 56 61 39 119 75 173 35 41-30 88-34 137-39a1551 1551 0 0 0 46-3Z"/>
    <path d="M1284 1201c-21 0-41-5-63-16a763 763 0 0 0-290-43c-50 4-98 8-140 39-57 43-118 5-182-36-55-34-111-70-170-58-91 19-194 35-274-16-45-29-78-80-92-142-5-23-8-46-7-70 0-20 2-40 4-60 5-42 9-85-3-125-5-18-14-35-22-51l-10-19a401 401 0 0 1-15-303l1-4 10-26 7-19c14-36 27-77 14-117l-14-29-3-5-14-28C0 22 14-35 29-86c9-33 20-65 41-90 20-24 56-43 90-32 17 5 32 17 46 28 20 17 40 33 64 28 14-3 26-13 38-24 47-46 103-93 164-77 29 7 54 28 77 48 31 27 59 52 97 47 27-3 49-22 70-41l28-23c28-19 67-28 104-24 20 3 36 11 52 19 11 5 22 11 35 15 19 5 41 2 63 0l25-3a181635 181635 0 0 1 190-9l63-4c135-7 287-15 422 38 18 8 37 16 50 32 11 12 16 28 22 44 21 61 37 130 53 216 8 45 15 91 21 136 13 87 27 176 48 262l7 27c15 55 29 111 23 168-3 30-12 61-28 95-19 40-44 77-73 117-21 31-45 65-80 85-32 18-71 22-107 23-80 3-138 53-194 102-35 29-67 57-102 72-18 8-36 12-54 12Zm-305-66c65 0 198 25 243 47 87 43 149-11 216-68 57-48 115-98 196-102 36-1 74-5 106-22 34-20 58-54 79-84 29-41 54-78 73-117 15-33 24-64 28-95 5-56-9-112-23-166l-7-27c-22-86-35-176-48-263l-22-136c-15-86-32-154-53-215-5-16-11-31-21-43-13-15-31-24-49-31-134-53-286-45-421-38l-63 3-106 6-84 4-25 3c-22 2-45 5-64-1-13-3-24-9-35-15-16-8-32-16-51-18a150 150 0 0 0-130 46c-21 19-44 39-72 42h-9c-34 0-61-23-90-48-23-20-47-40-75-48-60-15-115 32-162 77a85 85 0 0 1-39 25c-26 5-46-11-67-29-14-11-28-23-45-28-33-10-67 8-87 31-21 25-31 57-41 90C17-35 3 22 23 72l14 27 4 6c5 9 10 19 13 29 14 40 0 83-13 119l-7 19-10 26-2 4a393 393 0 0 0 16 301l9 19c9 16 17 33 23 51 12 41 8 84 3 127-2 19-4 39-4 59-1 23 1 47 7 69 13 62 46 112 91 141 39 25 84 34 131 34s95-9 140-18c60-13 117 23 173 58 63 40 123 77 178 36 42-31 91-36 142-40a1494 1494 0 0 0 48-4Z"/>
    <path d="M1294 1225c-22 0-43-5-65-16a785 785 0 0 0-299-45c-52 5-102 9-145 41-58 44-121 5-187-37-56-35-115-72-175-60-94 20-201 37-283-16-47-30-80-83-95-147-5-23-7-48-7-72 0-20 3-41 5-62 4-43 9-88-4-129-5-18-14-35-23-52L6 610a415 415 0 0 1-4-344l7-19c14-37 28-80 14-121A170 170 0 0 0 6 91L-9 63c-21-53-7-112 8-164 10-34 21-68 43-94 21-24 58-44 93-33 17 6 33 18 47 30 21 18 42 34 67 29 14-3 26-13 38-25 49-47 107-96 170-80 30 8 55 30 79 51 31 27 61 52 100 48 28-4 51-23 73-43l28-23c28-20 69-30 108-25 20 2 37 11 53 19 11 6 23 12 36 15 19 6 43 3 65 0l26-2a156605 156605 0 0 1 196-10l65-4c139-7 296-15 436 39 18 8 38 17 51 33 11 13 17 28 23 45 21 63 38 134 54 223l22 140c13 90 27 182 50 271l7 28c14 56 29 114 23 173-3 31-13 63-29 98-19 41-45 79-75 121-22 31-47 67-83 87-33 19-73 23-110 24-83 3-143 55-201 105-35 30-68 58-104 74-19 8-38 12-56 12Zm-315-67c68 0 205 26 251 48 89 45 154-11 223-69 58-51 118-102 202-106 37-1 76-5 109-23 35-20 60-55 82-86 29-42 55-80 75-121 16-34 25-66 29-98 6-57-9-115-24-172l-7-27c-22-89-36-182-50-271l-22-140c-16-89-33-160-54-223-6-16-11-32-22-44-13-16-32-25-50-32-139-55-296-46-434-39l-66 3a156184 156184 0 0 1-222 13c-22 3-46 6-66 0-13-4-25-10-36-16-16-8-33-16-53-18a155 155 0 0 0-134 47c-22 20-45 40-74 44h-9c-35 0-63-24-93-49-24-21-48-43-78-50-61-16-118 32-167 79a88 88 0 0 1-40 26c-26 5-47-12-69-30-14-11-29-24-46-29-34-11-69 8-90 32-21 26-32 59-42 93C-13-49-27 10-6 61L8 90l4 6 14 29c14 42 0 85-14 123l-8 19-10 28a332 332 0 0 0-16 59c-17 86-6 176 31 255l10 20c9 17 17 34 23 52 13 42 8 87 4 131-2 20-5 41-5 61-1 24 2 48 7 72 14 63 48 115 94 145 81 52 187 35 280 16 62-13 121 24 178 60 65 41 126 80 184 37 43-33 93-37 146-41l31-3 18-1Z"/>
    <path d="M1304 1250c-22 0-44-6-67-17-52-26-218-55-276-49l-32 3c-54 5-105 9-149 42-61 45-125 5-193-38-58-37-118-75-181-62-96 21-206 38-290-16-49-32-84-85-98-152-6-24-8-49-8-74l5-63c5-45 10-91-4-134-5-19-14-36-23-53l-11-21a427 427 0 0 1-17-321l2-5 11-28 7-20c14-38 28-82 14-124a176 176 0 0 0-17-37c-6-9-11-19-15-29-22-54-8-115 8-168 10-36 22-70 44-97 22-25 60-46 96-34 18 6 33 19 48 31 22 18 43 35 69 30 15-4 27-14 40-26 50-49 110-99 175-82 30 8 56 30 81 52 32 28 63 54 102 49 30-3 53-24 76-43l29-25c29-21 71-30 111-26 21 3 38 12 55 20 12 6 24 12 37 16 20 6 44 3 67 0l27-3a93698 93698 0 0 1 202-10l67-4c143-7 306-16 449 41 19 7 39 17 53 33 11 13 18 29 23 46 22 66 40 139 56 230l23 145c14 92 28 188 51 279l7 29c15 58 31 118 24 178-3 32-13 65-30 101-20 42-47 81-77 125-23 32-49 69-86 89-34 19-75 23-114 25-84 3-146 56-206 108-36 31-71 60-108 76-19 9-38 13-57 13Zm-325-70c70 0 211 27 259 50 92 46 159-11 229-72 60-51 123-105 208-108 39-1 79-5 113-24 37-21 62-57 85-89 30-43 57-82 77-125 16-35 26-67 30-100 6-59-10-119-25-177l-7-28c-23-92-37-187-51-280-7-47-14-96-23-144-16-91-34-164-55-230-6-16-12-33-23-45-13-16-33-25-52-33-143-56-305-48-447-40l-68 4a134351 134351 0 0 1-202 10l-26 3c-24 3-48 6-68 0-14-4-26-10-38-16-17-9-34-17-54-20-40-4-80 5-109 26-10 7-20 15-29 24-23 20-47 41-77 44-41 5-72-22-105-50-24-22-50-44-80-51-63-17-122 33-172 81a90 90 0 0 1-41 26c-28 6-49-12-71-30-15-12-30-25-48-30-35-12-72 8-93 33-22 26-33 60-43 95C-43-63-58-2-36 51c4 10 10 19 15 29a768 768 0 0 1 18 37c14 43 0 87-14 126a1326 1326 0 0 1-20 52 414 414 0 0 0 17 320l10 20c9 18 18 35 24 54 14 44 9 90 4 135l-5 63c0 25 2 50 7 74 15 65 49 118 97 149 42 27 90 36 139 36 50 0 102-9 150-19 63-14 124 25 183 62 67 42 130 82 189 38 45-34 96-38 151-43l32-3 18-1Z"/>
    <path d="M1314 1275c-23 0-46-6-69-18-25-12-79-27-140-37a632 632 0 0 0-177-10c-56 4-108 9-154 43a96 96 0 0 1-59 20c-44 0-91-29-139-59-60-38-122-77-186-64-99 21-212 39-299-17-50-32-86-87-101-155-5-25-8-51-7-77 0-21 2-44 5-65 4-46 9-93-4-138-6-19-16-37-25-55l-10-21a440 440 0 0 1-18-331l1-5 11-29 8-20c15-39 29-85 15-128l-15-31-3-6c-6-10-12-20-16-31-23-55-7-118 9-173 10-36 22-72 45-99 23-26 62-47 99-35 18 6 34 19 50 32 22 18 44 36 70 30 16-3 28-14 41-26 52-50 114-102 180-85 32 9 58 32 84 54 33 29 65 56 105 51 31-4 55-25 78-45 10-9 20-18 30-25 30-22 73-32 114-27 22 3 40 12 57 20 12 6 25 13 38 17 21 6 46 3 69 0l28-3 92-5 116-6 69-4c148-8 315-17 462 42 20 7 41 17 55 34 12 13 18 30 24 48 22 67 41 143 57 237 9 49 16 100 24 148 14 95 28 194 52 288l7 29c16 60 32 122 25 184-3 33-13 67-31 104-20 43-48 84-79 128-24 34-50 71-88 93-36 19-78 23-118 25-87 3-151 58-212 111-38 32-73 62-111 79-20 8-40 13-59 13Zm-334-72c71 0 217 27 266 52 95 47 163-12 236-74 62-54 126-109 214-112 40-1 82-6 116-25 38-21 64-58 87-91 32-45 59-85 80-129 17-36 27-69 30-102 7-62-9-123-24-183l-8-29c-23-95-38-193-52-288l-24-149c-16-94-34-169-57-236-6-17-12-34-23-47-14-17-34-26-54-34-147-58-313-49-460-41l-70 4-115 6-93 5-27 3c-24 3-49 6-70-1-14-4-27-10-39-16-17-9-35-18-56-20-41-5-83 5-112 26l-30 25c-24 21-48 42-79 46l-10 1c-37 0-67-26-98-53-25-22-51-45-83-53-65-16-125 35-177 84a93 93 0 0 1-42 27c-28 6-50-12-73-31-15-13-31-25-49-31-36-12-74 8-95 34-24 27-35 62-46 98-16 54-31 117-8 171 4 11 10 21 15 30l4 7c5 9 11 20 14 31 15 44 0 90-14 130l-8 20-11 29-2 5a437 437 0 0 0 29 350c9 18 18 36 24 55 14 45 9 93 4 139l-5 65c0 26 2 51 8 76 15 67 50 122 100 154 85 55 198 38 296 17 66-14 128 25 189 63 69 44 134 85 194 40 47-35 100-39 156-44l32-3 20-1Z"/>
    <path d="M1324 1299c-24 0-47-6-71-18-26-12-81-27-144-39-63-11-120-16-149-13l-33 3c-57 5-111 10-158 45a98 98 0 0 1-61 21c-46 0-93-30-143-61-61-39-125-79-191-65-102 21-218 40-308-18-51-33-88-90-103-160-6-26-9-52-8-79 0-22 3-45 5-67 5-47 10-96-4-141-6-20-16-39-25-57l-11-22a452 452 0 0 1-19-340l1-5 12-31 8-20c15-40 30-87 15-132-3-10-8-20-15-32l-4-6-16-31c-23-57-7-122 9-178 11-38 23-74 47-102 23-27 64-49 102-36 19 6 35 19 51 33 23 19 45 37 73 31 16-3 28-14 42-27 54-51 116-104 185-87 32 8 60 32 86 55 34 30 67 58 108 53 32-4 56-26 80-47l31-26c31-22 75-32 118-27 22 2 40 12 58 20 13 7 25 13 40 17 21 6 46 3 71 0l28-3 95-5 119-6 72-4c151-8 323-17 475 43 20 8 41 18 56 35 12 14 19 31 25 49 23 70 41 147 58 244l24 153c15 98 30 199 54 296l8 30c16 62 32 125 25 189-3 34-14 69-31 107-22 45-50 86-83 132-24 34-51 73-90 95-36 20-80 24-121 26-90 3-155 59-219 114-38 33-74 64-114 81-20 9-40 13-60 13Zm-344-74c74 0 223 28 274 54 97 48 168-12 243-76 31-27 63-55 99-77 41-24 80-37 121-38 41-2 84-6 119-26 39-21 66-60 90-94 32-45 61-87 82-131 18-37 28-72 31-106 7-63-9-127-25-188l-8-30c-24-97-39-199-54-297-7-50-15-102-24-152-17-97-35-175-58-244-6-17-12-35-24-48-14-17-35-27-55-35-152-59-323-50-474-42l-72 4-119 6-95 5-28 3c-25 3-51 6-72 0-15-4-28-11-40-17-18-9-36-18-58-20a169 169 0 0 0-146 52c-24 22-49 44-81 48h-10c-39 0-69-26-101-54-26-23-53-46-85-54-67-17-129 35-182 86a95 95 0 0 1-44 28c-28 6-51-13-75-32-15-13-32-26-50-32-37-12-76 8-98 35-24 27-36 63-47 101-16 56-32 120-9 176 5 10 10 21 16 30l4 7c5 10 11 21 15 33 15 45 0 92-15 133l-8 20a1287 1287 0 0 0-13 36 449 449 0 0 0 30 360c9 18 18 37 25 57 14 46 9 95 4 143-3 22-5 44-5 66-1 27 2 53 7 78 16 70 52 126 103 159 88 56 204 38 305 17 67-15 132 26 194 65 71 45 138 87 200 41 47-36 102-41 160-46a1658 1658 0 0 0 53-4Z"/>
    <path d="M1334 1324c-24 0-48-6-74-19s-82-28-147-40c-65-11-124-16-153-13l-34 3c-59 5-115 10-163 46-20 15-41 21-62 21-47 0-96-30-147-63-63-40-129-81-196-67-53 12-110 22-165 22-54 0-106-10-151-39-38-24-68-61-88-107-19-42-28-90-27-139 0-22 3-46 5-68 5-49 11-99-4-146-6-20-16-40-26-58l-11-23a463 463 0 0 1-20-350l14-36c20-52 40-105 23-156-4-14-12-27-19-40-6-10-12-21-16-32-24-58-8-125 9-183 11-38 24-76 48-105 24-27 65-49 105-36 19 6 36 20 53 33 23 20 46 39 74 33 17-4 30-15 44-28 55-53 119-107 189-89 34 8 62 32 89 56 35 31 68 59 111 54 32-3 56-25 80-46l34-28c31-23 76-34 121-29 23 3 42 13 60 22 13 6 26 13 41 17 21 6 48 3 73 0l29-3 294-16c155-8 332-18 488 44 21 8 43 18 58 36 12 14 19 32 25 51 44 132 65 272 85 407 15 101 30 205 55 305l8 31c17 63 33 129 26 194-4 41-18 83-42 129-21 40-46 76-75 117-25 35-53 75-93 97-37 21-82 25-124 27-92 3-160 61-225 117-39 34-77 66-117 83-21 9-42 14-62 14Zm-354-76c76 0 230 29 282 55 100 50 172-13 249-78 32-28 66-57 103-79 41-25 82-38 124-39 42-2 86-6 123-26 39-23 67-62 92-97 50-71 106-151 116-244 7-65-9-130-26-193l-8-31c-25-100-40-205-55-305-20-136-41-276-85-407-6-19-12-36-24-50-15-17-36-27-57-36-155-61-332-51-487-43l-294 16-29 3c-25 3-52 6-74 0-15-4-28-11-41-18-18-9-37-18-59-21-44-5-89 6-119 28-12 8-23 18-34 28-24 21-49 43-81 47-45 6-78-24-114-55-27-23-54-47-87-56-69-17-133 37-187 89a98 98 0 0 1-45 29c-30 6-53-13-77-33-16-14-33-27-52-34-38-12-78 9-101 36-25 29-37 66-48 104-17 58-33 124-9 181 4 11 10 22 16 32 7 12 15 26 19 40 18 52-3 106-23 158l-14 36a460 460 0 0 0 20 348l11 22c10 19 20 38 26 59 15 47 9 98 4 147-2 22-5 46-5 68-2 104 41 197 113 243 91 59 210 40 314 18 69-15 135 27 199 67 73 46 141 89 205 41 49-36 105-41 164-46l35-3 20-1Z"/>
  </g>
  <defs>
    <clipPath id="a">
      <path fill="#fff" d="M0 0h1920v1080H0z"/>
    </clipPath>
  </defs>
</svg>